<mxfile host="app.diagrams.net" modified="2024-01-17T18:59:33.206Z" agent="Mozilla/5.0 (Windows NT 10.0; Win64; x64) AppleWebKit/537.36 (KHTML, like Gecko) Chrome/120.0.0.0 Safari/537.36" etag="Ut4UDnTBEk1vLLqOVnxe" version="22.1.21" type="device">
  <diagram name="Seite-1" id="_XKiMnRKuYHMGs8o5DEB">
    <mxGraphModel dx="1434" dy="768" grid="1" gridSize="10" guides="1" tooltips="1" connect="1" arrows="1" fold="1" page="1" pageScale="1" pageWidth="827" pageHeight="1169" math="0" shadow="0">
      <root>
        <mxCell id="0" />
        <mxCell id="1" parent="0" />
        <mxCell id="Nzqc8Aru7XShmCsR6fFq-1" value="req [Package] Requirements Kollisionsvermeidung [Fahrzeug Requirements" style="shape=umlFrame;whiteSpace=wrap;html=1;pointerEvents=0;width=500;height=40;" vertex="1" parent="1">
          <mxGeometry x="260" y="260" width="1000" height="580" as="geometry" />
        </mxCell>
        <mxCell id="Nzqc8Aru7XShmCsR6fFq-2" value="&lt;p style=&quot;margin:0px;margin-top:4px;text-align:center;&quot;&gt;&amp;lt;&amp;lt;requirement&amp;gt;&amp;gt;&lt;br&gt;&lt;b&gt;Kollisionsvermeidung&lt;/b&gt;&lt;/p&gt;&lt;hr&gt;&lt;p style=&quot;margin:0px;margin-left:8px;text-align:left;&quot;&gt;text: &quot;Das autonome Fahrzeug soll Kollisionen vermeiden&quot;&lt;/p&gt;&lt;p style=&quot;margin:0px;margin-left:8px;text-align:left;&quot;&gt;id=0&lt;/p&gt;" style="shape=rect;html=1;overflow=fill;whiteSpace=wrap;" vertex="1" parent="1">
          <mxGeometry x="660" y="330" width="200" height="110" as="geometry" />
        </mxCell>
        <mxCell id="Nzqc8Aru7XShmCsR6fFq-10" style="edgeStyle=orthogonalEdgeStyle;rounded=0;orthogonalLoop=1;jettySize=auto;html=1;entryX=0.5;entryY=1;entryDx=0;entryDy=0;endArrow=circlePlus;endFill=0;" edge="1" parent="1" source="Nzqc8Aru7XShmCsR6fFq-3" target="Nzqc8Aru7XShmCsR6fFq-2">
          <mxGeometry relative="1" as="geometry">
            <Array as="points">
              <mxPoint x="1130" y="540" />
              <mxPoint x="760" y="540" />
            </Array>
          </mxGeometry>
        </mxCell>
        <mxCell id="Nzqc8Aru7XShmCsR6fFq-3" value="&lt;p style=&quot;margin:0px;margin-top:4px;text-align:center;&quot;&gt;&amp;lt;&amp;lt;requirement&amp;gt;&amp;gt;&lt;br&gt;&lt;b&gt;Reaktion auf Unerwartetes&lt;/b&gt;&lt;/p&gt;&lt;hr&gt;&lt;p style=&quot;margin:0px;margin-left:8px;text-align:left;&quot;&gt;text: &quot;Als autonomes Fahrzeug muss ich bei nicht identifizierbaren Situationen, das autonome Fahren abschalten und schnellstmöglich zum Stillstand kommen&quot;&lt;/p&gt;&lt;p style=&quot;margin:0px;margin-left:8px;text-align:left;&quot;&gt;id=0&lt;/p&gt;" style="shape=rect;html=1;overflow=fill;whiteSpace=wrap;" vertex="1" parent="1">
          <mxGeometry x="1030" y="650" width="200" height="140" as="geometry" />
        </mxCell>
        <mxCell id="Nzqc8Aru7XShmCsR6fFq-9" style="edgeStyle=orthogonalEdgeStyle;rounded=0;orthogonalLoop=1;jettySize=auto;html=1;entryX=0.5;entryY=1;entryDx=0;entryDy=0;endArrow=circlePlus;endFill=0;" edge="1" parent="1" source="Nzqc8Aru7XShmCsR6fFq-4" target="Nzqc8Aru7XShmCsR6fFq-2">
          <mxGeometry relative="1" as="geometry">
            <Array as="points">
              <mxPoint x="885" y="540" />
              <mxPoint x="760" y="540" />
            </Array>
          </mxGeometry>
        </mxCell>
        <mxCell id="Nzqc8Aru7XShmCsR6fFq-4" value="&lt;p style=&quot;margin:0px;margin-top:4px;text-align:center;&quot;&gt;&amp;lt;&amp;lt;requirement&amp;gt;&amp;gt;&lt;br&gt;&lt;b&gt;Hindernis-Erkennung&lt;/b&gt;&lt;/p&gt;&lt;hr&gt;&lt;p style=&quot;margin:0px;margin-left:8px;text-align:left;&quot;&gt;text: &quot;Als autonomes Fahrzeug muss ich Hindernisse frühzeitig erkennen und diese meiden&quot;&lt;/p&gt;&lt;p style=&quot;margin:0px;margin-left:8px;text-align:left;&quot;&gt;id=3&lt;/p&gt;" style="shape=rect;html=1;overflow=fill;whiteSpace=wrap;" vertex="1" parent="1">
          <mxGeometry x="785" y="650" width="200" height="130" as="geometry" />
        </mxCell>
        <mxCell id="Nzqc8Aru7XShmCsR6fFq-7" style="edgeStyle=orthogonalEdgeStyle;rounded=0;orthogonalLoop=1;jettySize=auto;html=1;entryX=0.5;entryY=1;entryDx=0;entryDy=0;endArrow=circlePlus;endFill=0;" edge="1" parent="1" source="Nzqc8Aru7XShmCsR6fFq-5" target="Nzqc8Aru7XShmCsR6fFq-2">
          <mxGeometry relative="1" as="geometry">
            <Array as="points">
              <mxPoint x="390" y="540" />
              <mxPoint x="760" y="540" />
            </Array>
          </mxGeometry>
        </mxCell>
        <mxCell id="Nzqc8Aru7XShmCsR6fFq-5" value="&lt;p style=&quot;margin:0px;margin-top:4px;text-align:center;&quot;&gt;&amp;lt;&amp;lt;requirement&amp;gt;&amp;gt;&lt;br&gt;&lt;b&gt;Geschwindigkeitsanpassung&lt;/b&gt;&lt;/p&gt;&lt;hr&gt;&lt;p style=&quot;margin:0px;margin-left:8px;text-align:left;&quot;&gt;text: &quot;Als autonomes Fahrzeug muss ich mit angepasster Geschwindigkeit fahren um jederzeit reagieren zu können&quot;&lt;/p&gt;&lt;p style=&quot;margin:0px;margin-left:8px;text-align:left;&quot;&gt;id=1&lt;/p&gt;" style="shape=rect;html=1;overflow=fill;whiteSpace=wrap;" vertex="1" parent="1">
          <mxGeometry x="290" y="650" width="200" height="130" as="geometry" />
        </mxCell>
        <mxCell id="Nzqc8Aru7XShmCsR6fFq-8" style="edgeStyle=orthogonalEdgeStyle;rounded=0;orthogonalLoop=1;jettySize=auto;html=1;endArrow=circlePlus;endFill=0;" edge="1" parent="1" source="Nzqc8Aru7XShmCsR6fFq-6">
          <mxGeometry relative="1" as="geometry">
            <mxPoint x="760" y="440" as="targetPoint" />
            <Array as="points">
              <mxPoint x="640" y="540" />
              <mxPoint x="761" y="540" />
            </Array>
          </mxGeometry>
        </mxCell>
        <mxCell id="Nzqc8Aru7XShmCsR6fFq-6" value="&lt;p style=&quot;margin:0px;margin-top:4px;text-align:center;&quot;&gt;&amp;lt;&amp;lt;requirement&amp;gt;&amp;gt;&lt;br&gt;&lt;b&gt;Abwesenheit von Fahrzeugen&lt;/b&gt;&lt;/p&gt;&lt;hr&gt;&lt;p style=&quot;margin:0px;margin-left:8px;text-align:left;&quot;&gt;text: &quot;Als autonomes Fahrzeug muss ich auch bei Abwesenheit von fremden Fahrzeugen trotzdem navigieren können&quot;&lt;/p&gt;&lt;p style=&quot;margin:0px;margin-left:8px;text-align:left;&quot;&gt;id=2&lt;/p&gt;" style="shape=rect;html=1;overflow=fill;whiteSpace=wrap;" vertex="1" parent="1">
          <mxGeometry x="540" y="650" width="200" height="130" as="geometry" />
        </mxCell>
      </root>
    </mxGraphModel>
  </diagram>
</mxfile>
